<svg width="32" height="32" viewBox="0 0 32 32" fill="none" xmlns="http://www.w3.org/2000/svg">
<path d="M0 16C0 7.16344 7.16344 0 16 0V0C24.8366 0 32 7.16344 32 16V16C32 24.8366 24.8366 32 16 32V32C7.16344 32 0 24.8366 0 16V16Z" fill="url(#paint0_linear_103_10)"/>
<path d="M15.2269 23.9307L15.2219 23.928L15.2045 23.9185C15.1896 23.9103 15.1684 23.8985 15.1412 23.8832C15.0869 23.8525 15.0086 23.8076 14.91 23.7489C14.7127 23.6316 14.4332 23.4588 14.0989 23.2341C13.4313 22.7854 12.5394 22.1258 11.6451 21.2829C9.87524 19.6147 8 17.1363 8 14.0834C8 11.806 9.89508 10 12.1827 10C13.528 10 14.7326 10.6215 15.5 11.5957C16.2674 10.6215 17.472 10 18.8173 10C21.1049 10 23 11.806 23 14.0834C23 17.1363 21.1248 19.6147 19.3549 21.2829C18.4606 22.1258 17.5687 22.7854 16.9011 23.2341C16.5668 23.4588 16.2873 23.6316 16.09 23.7489C15.9914 23.8076 15.9131 23.8525 15.8588 23.8832C15.8316 23.8985 15.8104 23.9103 15.7955 23.9185L15.7781 23.928L15.7731 23.9307L15.771 23.9319C15.6018 24.0227 15.3982 24.0227 15.229 23.9319L15.2269 23.9307Z" fill="black"/>
<defs>
<linearGradient id="paint0_linear_103_10" x1="32" y1="14.8267" x2="0.0104395" y2="14.3655" gradientUnits="userSpaceOnUse">
<stop stop-color="#F3DCF2"/>
<stop offset="0.598958" stop-color="#F4E3C8"/>
<stop offset="1" stop-color="#F8EAAA"/>
</linearGradient>
</defs>
</svg>
